%TF.GenerationSoftware,KiCad,Pcbnew,(5.1.10)-1*%
%TF.CreationDate,2023-02-11T08:53:15-05:00*%
%TF.ProjectId,Optitest,4f707469-7465-4737-942e-6b696361645f,rev?*%
%TF.SameCoordinates,Original*%
%TF.FileFunction,Soldermask,Top*%
%TF.FilePolarity,Negative*%
%FSLAX46Y46*%
G04 Gerber Fmt 4.6, Leading zero omitted, Abs format (unit mm)*
G04 Created by KiCad (PCBNEW (5.1.10)-1) date 2023-02-11 08:53:15*
%MOMM*%
%LPD*%
G01*
G04 APERTURE LIST*
%ADD10R,2.500000X1.100000*%
%ADD11R,1.100000X2.500000*%
%ADD12R,1.200000X1.200000*%
%ADD13C,1.200000*%
%ADD14C,1.400000*%
%ADD15O,1.400000X1.400000*%
%ADD16R,1.000000X1.000000*%
%ADD17O,1.000000X1.000000*%
%ADD18R,0.900000X1.300000*%
%ADD19C,0.100000*%
%ADD20O,3.048000X1.850000*%
G04 APERTURE END LIST*
D10*
%TO.C,U1*%
X126430000Y-81280000D03*
X126430000Y-79280000D03*
X126430000Y-77280000D03*
X126430000Y-75280000D03*
X126430000Y-73280000D03*
X126430000Y-71280000D03*
X126430000Y-69280000D03*
X126430000Y-67280000D03*
X111030000Y-67280000D03*
X111030000Y-69280000D03*
X111030000Y-71280000D03*
X111030000Y-73280000D03*
X111030000Y-75280000D03*
X111030000Y-77280000D03*
X111030000Y-79280000D03*
X111030000Y-81280000D03*
D11*
X123740000Y-65580000D03*
X121740000Y-65580000D03*
X119740000Y-65580000D03*
X117740000Y-65580000D03*
X115740000Y-65580000D03*
X113740000Y-65580000D03*
%TD*%
D12*
%TO.C,C1*%
X132080000Y-101600000D03*
D13*
X130580000Y-101600000D03*
%TD*%
D14*
%TO.C,R1*%
X101600000Y-83820000D03*
D15*
X106680000Y-83820000D03*
%TD*%
%TO.C,R2*%
X106680000Y-78740000D03*
D14*
X101600000Y-78740000D03*
%TD*%
%TO.C,R3*%
X101600000Y-72390000D03*
D15*
X106680000Y-72390000D03*
%TD*%
%TO.C,R4*%
X106680000Y-67310000D03*
D14*
X101600000Y-67310000D03*
%TD*%
D15*
%TO.C,R5*%
X132080000Y-91440000D03*
D14*
X132080000Y-96520000D03*
%TD*%
%TO.C,R6*%
X132080000Y-66040000D03*
D15*
X132080000Y-71120000D03*
%TD*%
D14*
%TO.C,R7*%
X101600000Y-88900000D03*
D15*
X106680000Y-88900000D03*
%TD*%
%TO.C,R8*%
X106680000Y-93980000D03*
D14*
X101600000Y-93980000D03*
%TD*%
%TO.C,R9*%
X132080000Y-87630000D03*
D15*
X132080000Y-82550000D03*
%TD*%
%TO.C,R10*%
X132080000Y-74660000D03*
D14*
X132080000Y-79740000D03*
%TD*%
D16*
%TO.C,J5*%
X97790000Y-88900000D03*
D17*
X96520000Y-88900000D03*
%TD*%
D18*
%TO.C,U2*%
X105640000Y-99950000D03*
X102640000Y-99950000D03*
D19*
G36*
X103273500Y-103900000D02*
G01*
X103273500Y-100775000D01*
X103690000Y-100775000D01*
X103690000Y-99300000D01*
X104590000Y-99300000D01*
X104590000Y-100775000D01*
X105006500Y-100775000D01*
X105006500Y-103900000D01*
X103273500Y-103900000D01*
G37*
%TD*%
D17*
%TO.C,BZ1*%
X96520000Y-99060000D03*
D16*
X97790000Y-99060000D03*
%TD*%
%TO.C,D1*%
X97790000Y-93980000D03*
D17*
X96520000Y-93980000D03*
%TD*%
D16*
%TO.C,J1*%
X97790000Y-83820000D03*
D17*
X96520000Y-83820000D03*
%TD*%
%TO.C,J2*%
X96175001Y-78335001D03*
D16*
X97445001Y-78335001D03*
%TD*%
%TO.C,J3*%
X97790000Y-72390000D03*
D17*
X96520000Y-72390000D03*
%TD*%
%TO.C,J4*%
X96520000Y-67310000D03*
D16*
X97790000Y-67310000D03*
%TD*%
%TO.C,J6*%
X97790000Y-104140000D03*
D17*
X96520000Y-104140000D03*
%TD*%
D20*
%TO.C,SW5*%
X124260000Y-96520000D03*
X124260000Y-101520000D03*
X111760000Y-96520000D03*
X111760000Y-101520000D03*
%TD*%
M02*
