M48
; DRILL file {KiCad (5.1.10)-1} date 02/11/23 08:53:09
; FORMAT={-:-/ absolute / inch / decimal}
; #@! TF.CreationDate,2023-02-11T08:53:09-05:00
; #@! TF.GenerationSoftware,Kicad,Pcbnew,(5.1.10)-1
; #@! TF.FileFunction,Plated,1,2,PTH
FMAT,2
INCH
T1C0.0157
T2C0.0236
T3C0.0256
T4C0.0276
T5C0.0512
%
G90
G05
T1
X4.1591Y-3.8715
X4.7734Y-3.2764
X4.9047Y-3.0425
X5.0504Y-2.6488
X5.076Y-3.0868
X5.0989Y-2.7276
T2
X5.1409Y-4.0
X5.2Y-4.0
T3
X3.7864Y-3.0841
X3.8Y-2.65
X3.8Y-2.85
X3.8Y-3.3
X3.8Y-3.5
X3.8Y-3.7
X3.8Y-3.9
X3.8Y-4.1
X3.8364Y-3.0841
X3.85Y-2.65
X3.85Y-2.85
X3.85Y-3.3
X3.85Y-3.5
X3.85Y-3.7
X3.85Y-3.9
X3.85Y-4.1
T4
X4.0Y-2.65
X4.0Y-2.85
X4.0Y-3.1
X4.0Y-3.3
X4.0Y-3.5
X4.0Y-3.7
X4.2Y-2.65
X4.2Y-2.85
X4.2Y-3.1
X4.2Y-3.3
X4.2Y-3.5
X4.2Y-3.7
X5.2Y-2.6
X5.2Y-2.8
X5.2Y-2.9394
X5.2Y-3.1394
X5.2Y-3.25
X5.2Y-3.45
X5.2Y-3.6
X5.2Y-3.8
T5
X4.4Y-3.8
X4.4Y-3.9969
X4.8921Y-3.8
X4.8921Y-3.9969
T0
M30
