%TF.GenerationSoftware,KiCad,Pcbnew,(5.1.10)-1*%
%TF.CreationDate,2023-02-11T08:53:15-05:00*%
%TF.ProjectId,Optitest,4f707469-7465-4737-942e-6b696361645f,rev?*%
%TF.SameCoordinates,Original*%
%TF.FileFunction,Copper,L2,Bot*%
%TF.FilePolarity,Positive*%
%FSLAX46Y46*%
G04 Gerber Fmt 4.6, Leading zero omitted, Abs format (unit mm)*
G04 Created by KiCad (PCBNEW (5.1.10)-1) date 2023-02-11 08:53:15*
%MOMM*%
%LPD*%
G01*
G04 APERTURE LIST*
%TA.AperFunction,ComponentPad*%
%ADD10R,1.200000X1.200000*%
%TD*%
%TA.AperFunction,ComponentPad*%
%ADD11C,1.200000*%
%TD*%
%TA.AperFunction,ComponentPad*%
%ADD12C,1.400000*%
%TD*%
%TA.AperFunction,ComponentPad*%
%ADD13O,1.400000X1.400000*%
%TD*%
%TA.AperFunction,ComponentPad*%
%ADD14R,1.000000X1.000000*%
%TD*%
%TA.AperFunction,ComponentPad*%
%ADD15O,1.000000X1.000000*%
%TD*%
%TA.AperFunction,ComponentPad*%
%ADD16O,3.048000X1.850000*%
%TD*%
%TA.AperFunction,ViaPad*%
%ADD17C,0.800000*%
%TD*%
%TA.AperFunction,Conductor*%
%ADD18C,0.250000*%
%TD*%
G04 APERTURE END LIST*
D10*
%TO.P,C1,1*%
%TO.N,VCC*%
X132080000Y-101600000D03*
D11*
%TO.P,C1,2*%
%TO.N,GND*%
X130580000Y-101600000D03*
%TD*%
D12*
%TO.P,R1,1*%
%TO.N,VCC*%
X101600000Y-83820000D03*
D13*
%TO.P,R1,2*%
%TO.N,/MALO*%
X106680000Y-83820000D03*
%TD*%
%TO.P,R2,2*%
%TO.N,/REGULAR*%
X106680000Y-78740000D03*
D12*
%TO.P,R2,1*%
%TO.N,VCC*%
X101600000Y-78740000D03*
%TD*%
%TO.P,R3,1*%
%TO.N,VCC*%
X101600000Y-72390000D03*
D13*
%TO.P,R3,2*%
%TO.N,/BUENO*%
X106680000Y-72390000D03*
%TD*%
%TO.P,R4,2*%
%TO.N,/EXCELENTE*%
X106680000Y-67310000D03*
D12*
%TO.P,R4,1*%
%TO.N,VCC*%
X101600000Y-67310000D03*
%TD*%
D13*
%TO.P,R5,2*%
%TO.N,/CONF*%
X132080000Y-91440000D03*
D12*
%TO.P,R5,1*%
%TO.N,VCC*%
X132080000Y-96520000D03*
%TD*%
%TO.P,R6,1*%
%TO.N,/To_R5*%
X132080000Y-66040000D03*
D13*
%TO.P,R6,2*%
%TO.N,GND*%
X132080000Y-71120000D03*
%TD*%
D12*
%TO.P,R7,1*%
%TO.N,Net-(D1-Pad1)*%
X101600000Y-88900000D03*
D13*
%TO.P,R7,2*%
%TO.N,GND*%
X106680000Y-88900000D03*
%TD*%
%TO.P,R8,2*%
%TO.N,GND*%
X106680000Y-93980000D03*
D12*
%TO.P,R8,1*%
%TO.N,Net-(BZ1-Pad2)*%
X101600000Y-93980000D03*
%TD*%
%TO.P,R9,1*%
%TO.N,/BAT*%
X132080000Y-87630000D03*
D13*
%TO.P,R9,2*%
%TO.N,/To_ADC_2*%
X132080000Y-82550000D03*
%TD*%
%TO.P,R10,2*%
%TO.N,GND*%
X132080000Y-74660000D03*
D12*
%TO.P,R10,1*%
%TO.N,/To_ADC_2*%
X132080000Y-79740000D03*
%TD*%
D14*
%TO.P,J5,1*%
%TO.N,/TXD*%
X97790000Y-88900000D03*
D15*
%TO.P,J5,2*%
%TO.N,/RXD*%
X96520000Y-88900000D03*
%TD*%
%TO.P,BZ1,2*%
%TO.N,Net-(BZ1-Pad2)*%
X96520000Y-99060000D03*
D14*
%TO.P,BZ1,1*%
%TO.N,/Buzzer_1*%
X97790000Y-99060000D03*
%TD*%
%TO.P,D1,1*%
%TO.N,Net-(D1-Pad1)*%
X97790000Y-93980000D03*
D15*
%TO.P,D1,2*%
%TO.N,/INF*%
X96520000Y-93980000D03*
%TD*%
D14*
%TO.P,J1,1*%
%TO.N,GND*%
X97790000Y-83820000D03*
D15*
%TO.P,J1,2*%
%TO.N,/MALO*%
X96520000Y-83820000D03*
%TD*%
%TO.P,J2,2*%
%TO.N,/REGULAR*%
X96175001Y-78335001D03*
D14*
%TO.P,J2,1*%
%TO.N,GND*%
X97445001Y-78335001D03*
%TD*%
%TO.P,J3,1*%
%TO.N,GND*%
X97790000Y-72390000D03*
D15*
%TO.P,J3,2*%
%TO.N,/BUENO*%
X96520000Y-72390000D03*
%TD*%
%TO.P,J4,2*%
%TO.N,/EXCELENTE*%
X96520000Y-67310000D03*
D14*
%TO.P,J4,1*%
%TO.N,GND*%
X97790000Y-67310000D03*
%TD*%
%TO.P,J6,1*%
%TO.N,/BAT*%
X97790000Y-104140000D03*
D15*
%TO.P,J6,2*%
%TO.N,GND*%
X96520000Y-104140000D03*
%TD*%
D16*
%TO.P,SW5,1*%
%TO.N,GND*%
X124260000Y-96520000D03*
%TO.P,SW5,2*%
%TO.N,Net-(SW5-Pad2)*%
X124260000Y-101520000D03*
%TO.P,SW5,1*%
%TO.N,GND*%
X111760000Y-96520000D03*
%TO.P,SW5,2*%
%TO.N,Net-(SW5-Pad2)*%
X111760000Y-101520000D03*
%TD*%
D17*
%TO.N,/Buzzer_1*%
X121243700Y-83219900D03*
%TO.N,VCC*%
X105640000Y-98334900D03*
X128280100Y-67280000D03*
X124579900Y-77280000D03*
%TO.N,GND*%
X128929800Y-78404900D03*
%TO.N,/CONF*%
X129510900Y-69280000D03*
%TD*%
D18*
%TO.N,/Buzzer_1*%
X121243700Y-83219900D02*
X109868200Y-83219900D01*
X109868200Y-83219900D02*
X108280700Y-84807400D01*
X108280700Y-84807400D02*
X108280700Y-97472500D01*
X108280700Y-97472500D02*
X106693200Y-99060000D01*
X106693200Y-99060000D02*
X97790000Y-99060000D01*
%TO.N,VCC*%
X132080000Y-96520000D02*
X129654900Y-94094900D01*
X129654900Y-94094900D02*
X129654900Y-78073800D01*
X129654900Y-78073800D02*
X128861200Y-77280000D01*
X128861200Y-77280000D02*
X124579900Y-77280000D01*
X101600000Y-78740000D02*
X103060000Y-77280000D01*
X103060000Y-77280000D02*
X124579900Y-77280000D01*
X132080000Y-96520000D02*
X132080000Y-101600000D01*
X101600000Y-72390000D02*
X101600000Y-67310000D01*
X101600000Y-83820000D02*
X101600000Y-78740000D01*
X101600000Y-78740000D02*
X101600000Y-72390000D01*
X101600000Y-83820000D02*
X105640000Y-87860000D01*
X105640000Y-87860000D02*
X105640000Y-98334900D01*
X124579900Y-77280000D02*
X124579900Y-70980200D01*
X124579900Y-70980200D02*
X128280100Y-67280000D01*
%TO.N,GND*%
X128929800Y-98078400D02*
X128929800Y-78404900D01*
X128929800Y-98078400D02*
X130580000Y-99728600D01*
X130580000Y-99728600D02*
X130580000Y-101600000D01*
X97445000Y-78335000D02*
X97445000Y-74287800D01*
X97445000Y-74287800D02*
X97790000Y-73942800D01*
X97790000Y-73942800D02*
X97790000Y-72390000D01*
X97790000Y-83820000D02*
X97790000Y-80232800D01*
X97790000Y-80232800D02*
X97445000Y-79887800D01*
X97445000Y-79887800D02*
X97445000Y-78335000D01*
X106680000Y-88900000D02*
X106680000Y-93980000D01*
X97790000Y-72390000D02*
X97790000Y-67310000D01*
X132080000Y-74660000D02*
X132080000Y-71120000D01*
X124260000Y-96520000D02*
X124682200Y-96520000D01*
X124682200Y-96520000D02*
X126690800Y-98528500D01*
X126690800Y-98528500D02*
X128479700Y-98528500D01*
X128479700Y-98528500D02*
X128929800Y-98078400D01*
%TO.N,Net-(D1-Pad1)*%
X97790000Y-93980000D02*
X99602700Y-92167300D01*
X99602700Y-92167300D02*
X99602700Y-90897300D01*
X99602700Y-90897300D02*
X101600000Y-88900000D01*
%TO.N,/EXCELENTE*%
X106680000Y-67310000D02*
X105204800Y-65834800D01*
X105204800Y-65834800D02*
X97313800Y-65834800D01*
X97313800Y-65834800D02*
X96520000Y-66628600D01*
X96520000Y-66628600D02*
X96520000Y-67310000D01*
%TO.N,/To_ADC_2*%
X132080000Y-79740000D02*
X132080000Y-82550000D01*
%TO.N,/CONF*%
X129510900Y-69280000D02*
X130105000Y-69874100D01*
X130105000Y-69874100D02*
X130105000Y-89465000D01*
X130105000Y-89465000D02*
X132080000Y-91440000D01*
%TD*%
M02*
