%TF.GenerationSoftware,KiCad,Pcbnew,(5.1.10)-1*%
%TF.CreationDate,2023-02-11T08:53:15-05:00*%
%TF.ProjectId,Optitest,4f707469-7465-4737-942e-6b696361645f,rev?*%
%TF.SameCoordinates,Original*%
%TF.FileFunction,Legend,Top*%
%TF.FilePolarity,Positive*%
%FSLAX46Y46*%
G04 Gerber Fmt 4.6, Leading zero omitted, Abs format (unit mm)*
G04 Created by KiCad (PCBNEW (5.1.10)-1) date 2023-02-11 08:53:15*
%MOMM*%
%LPD*%
G01*
G04 APERTURE LIST*
%ADD10C,0.150000*%
%ADD11C,0.152400*%
%ADD12C,0.120000*%
G04 APERTURE END LIST*
D10*
X112133809Y-103925714D02*
X112324285Y-104592380D01*
X112514761Y-104116190D01*
X112705238Y-104592380D01*
X112895714Y-103925714D01*
X113181428Y-103925714D02*
X113371904Y-104592380D01*
X113562380Y-104116190D01*
X113752857Y-104592380D01*
X113943333Y-103925714D01*
X114229047Y-103925714D02*
X114419523Y-104592380D01*
X114610000Y-104116190D01*
X114800476Y-104592380D01*
X114990952Y-103925714D01*
X115371904Y-104497142D02*
X115419523Y-104544761D01*
X115371904Y-104592380D01*
X115324285Y-104544761D01*
X115371904Y-104497142D01*
X115371904Y-104592380D01*
X116276666Y-104592380D02*
X116276666Y-103592380D01*
X116276666Y-104544761D02*
X116181428Y-104592380D01*
X115990952Y-104592380D01*
X115895714Y-104544761D01*
X115848095Y-104497142D01*
X115800476Y-104401904D01*
X115800476Y-104116190D01*
X115848095Y-104020952D01*
X115895714Y-103973333D01*
X115990952Y-103925714D01*
X116181428Y-103925714D01*
X116276666Y-103973333D01*
X117181428Y-104592380D02*
X117181428Y-104068571D01*
X117133809Y-103973333D01*
X117038571Y-103925714D01*
X116848095Y-103925714D01*
X116752857Y-103973333D01*
X117181428Y-104544761D02*
X117086190Y-104592380D01*
X116848095Y-104592380D01*
X116752857Y-104544761D01*
X116705238Y-104449523D01*
X116705238Y-104354285D01*
X116752857Y-104259047D01*
X116848095Y-104211428D01*
X117086190Y-104211428D01*
X117181428Y-104163809D01*
X117800476Y-104592380D02*
X117705238Y-104544761D01*
X117657619Y-104449523D01*
X117657619Y-103592380D01*
X118181428Y-104592380D02*
X118181428Y-103925714D01*
X118181428Y-103592380D02*
X118133809Y-103640000D01*
X118181428Y-103687619D01*
X118229047Y-103640000D01*
X118181428Y-103592380D01*
X118181428Y-103687619D01*
X118657619Y-104497142D02*
X118705238Y-104544761D01*
X118657619Y-104592380D01*
X118610000Y-104544761D01*
X118657619Y-104497142D01*
X118657619Y-104592380D01*
X119562380Y-104544761D02*
X119467142Y-104592380D01*
X119276666Y-104592380D01*
X119181428Y-104544761D01*
X119133809Y-104497142D01*
X119086190Y-104401904D01*
X119086190Y-104116190D01*
X119133809Y-104020952D01*
X119181428Y-103973333D01*
X119276666Y-103925714D01*
X119467142Y-103925714D01*
X119562380Y-103973333D01*
X120133809Y-104592380D02*
X120038571Y-104544761D01*
X119990952Y-104497142D01*
X119943333Y-104401904D01*
X119943333Y-104116190D01*
X119990952Y-104020952D01*
X120038571Y-103973333D01*
X120133809Y-103925714D01*
X120276666Y-103925714D01*
X120371904Y-103973333D01*
X120419523Y-104020952D01*
X120467142Y-104116190D01*
X120467142Y-104401904D01*
X120419523Y-104497142D01*
X120371904Y-104544761D01*
X120276666Y-104592380D01*
X120133809Y-104592380D01*
X120895714Y-104592380D02*
X120895714Y-103925714D01*
X120895714Y-104020952D02*
X120943333Y-103973333D01*
X121038571Y-103925714D01*
X121181428Y-103925714D01*
X121276666Y-103973333D01*
X121324285Y-104068571D01*
X121324285Y-104592380D01*
X121324285Y-104068571D02*
X121371904Y-103973333D01*
X121467142Y-103925714D01*
X121610000Y-103925714D01*
X121705238Y-103973333D01*
X121752857Y-104068571D01*
X121752857Y-104592380D01*
X122229047Y-104497142D02*
X122276666Y-104544761D01*
X122229047Y-104592380D01*
X122181428Y-104544761D01*
X122229047Y-104497142D01*
X122229047Y-104592380D01*
X123133809Y-104544761D02*
X123038571Y-104592380D01*
X122848095Y-104592380D01*
X122752857Y-104544761D01*
X122705238Y-104497142D01*
X122657619Y-104401904D01*
X122657619Y-104116190D01*
X122705238Y-104020952D01*
X122752857Y-103973333D01*
X122848095Y-103925714D01*
X123038571Y-103925714D01*
X123133809Y-103973333D01*
X123705238Y-104592380D02*
X123610000Y-104544761D01*
X123562380Y-104497142D01*
X123514761Y-104401904D01*
X123514761Y-104116190D01*
X123562380Y-104020952D01*
X123610000Y-103973333D01*
X123705238Y-103925714D01*
X123848095Y-103925714D01*
X123943333Y-103973333D01*
X123990952Y-104020952D01*
X124038571Y-104116190D01*
X124038571Y-104401904D01*
X123990952Y-104497142D01*
X123943333Y-104544761D01*
X123848095Y-104592380D01*
X123705238Y-104592380D01*
X94457142Y-64222380D02*
X94647619Y-64222380D01*
X94742857Y-64270000D01*
X94838095Y-64365238D01*
X94885714Y-64555714D01*
X94885714Y-64889047D01*
X94838095Y-65079523D01*
X94742857Y-65174761D01*
X94647619Y-65222380D01*
X94457142Y-65222380D01*
X94361904Y-65174761D01*
X94266666Y-65079523D01*
X94219047Y-64889047D01*
X94219047Y-64555714D01*
X94266666Y-64365238D01*
X94361904Y-64270000D01*
X94457142Y-64222380D01*
X95314285Y-64555714D02*
X95314285Y-65555714D01*
X95314285Y-64603333D02*
X95409523Y-64555714D01*
X95600000Y-64555714D01*
X95695238Y-64603333D01*
X95742857Y-64650952D01*
X95790476Y-64746190D01*
X95790476Y-65031904D01*
X95742857Y-65127142D01*
X95695238Y-65174761D01*
X95600000Y-65222380D01*
X95409523Y-65222380D01*
X95314285Y-65174761D01*
X96219047Y-65222380D02*
X96219047Y-64555714D01*
X96219047Y-64222380D02*
X96171428Y-64270000D01*
X96219047Y-64317619D01*
X96266666Y-64270000D01*
X96219047Y-64222380D01*
X96219047Y-64317619D01*
X96552380Y-64555714D02*
X96933333Y-64555714D01*
X96695238Y-64222380D02*
X96695238Y-65079523D01*
X96742857Y-65174761D01*
X96838095Y-65222380D01*
X96933333Y-65222380D01*
X97647619Y-65174761D02*
X97552380Y-65222380D01*
X97361904Y-65222380D01*
X97266666Y-65174761D01*
X97219047Y-65079523D01*
X97219047Y-64698571D01*
X97266666Y-64603333D01*
X97361904Y-64555714D01*
X97552380Y-64555714D01*
X97647619Y-64603333D01*
X97695238Y-64698571D01*
X97695238Y-64793809D01*
X97219047Y-64889047D01*
X98076190Y-65174761D02*
X98171428Y-65222380D01*
X98361904Y-65222380D01*
X98457142Y-65174761D01*
X98504761Y-65079523D01*
X98504761Y-65031904D01*
X98457142Y-64936666D01*
X98361904Y-64889047D01*
X98219047Y-64889047D01*
X98123809Y-64841428D01*
X98076190Y-64746190D01*
X98076190Y-64698571D01*
X98123809Y-64603333D01*
X98219047Y-64555714D01*
X98361904Y-64555714D01*
X98457142Y-64603333D01*
X98790476Y-64555714D02*
X99171428Y-64555714D01*
X98933333Y-64222380D02*
X98933333Y-65079523D01*
X98980952Y-65174761D01*
X99076190Y-65222380D01*
X99171428Y-65222380D01*
X100123809Y-64222380D02*
X100457142Y-65222380D01*
X100790476Y-64222380D01*
X101076190Y-64317619D02*
X101123809Y-64270000D01*
X101219047Y-64222380D01*
X101457142Y-64222380D01*
X101552380Y-64270000D01*
X101600000Y-64317619D01*
X101647619Y-64412857D01*
X101647619Y-64508095D01*
X101600000Y-64650952D01*
X101028571Y-65222380D01*
X101647619Y-65222380D01*
X103361904Y-65222380D02*
X102790476Y-65222380D01*
X103076190Y-65222380D02*
X103076190Y-64222380D01*
X102980952Y-64365238D01*
X102885714Y-64460476D01*
X102790476Y-64508095D01*
X103980952Y-64222380D02*
X104076190Y-64222380D01*
X104171428Y-64270000D01*
X104219047Y-64317619D01*
X104266666Y-64412857D01*
X104314285Y-64603333D01*
X104314285Y-64841428D01*
X104266666Y-65031904D01*
X104219047Y-65127142D01*
X104171428Y-65174761D01*
X104076190Y-65222380D01*
X103980952Y-65222380D01*
X103885714Y-65174761D01*
X103838095Y-65127142D01*
X103790476Y-65031904D01*
X103742857Y-64841428D01*
X103742857Y-64603333D01*
X103790476Y-64412857D01*
X103838095Y-64317619D01*
X103885714Y-64270000D01*
X103980952Y-64222380D01*
X105076190Y-64698571D02*
X104742857Y-64698571D01*
X104742857Y-65222380D02*
X104742857Y-64222380D01*
X105219047Y-64222380D01*
X105600000Y-64698571D02*
X105933333Y-64698571D01*
X106076190Y-65222380D02*
X105600000Y-65222380D01*
X105600000Y-64222380D01*
X106076190Y-64222380D01*
X106838095Y-64698571D02*
X106980952Y-64746190D01*
X107028571Y-64793809D01*
X107076190Y-64889047D01*
X107076190Y-65031904D01*
X107028571Y-65127142D01*
X106980952Y-65174761D01*
X106885714Y-65222380D01*
X106504761Y-65222380D01*
X106504761Y-64222380D01*
X106838095Y-64222380D01*
X106933333Y-64270000D01*
X106980952Y-64317619D01*
X107028571Y-64412857D01*
X107028571Y-64508095D01*
X106980952Y-64603333D01*
X106933333Y-64650952D01*
X106838095Y-64698571D01*
X106504761Y-64698571D01*
X107457142Y-64317619D02*
X107504761Y-64270000D01*
X107600000Y-64222380D01*
X107838095Y-64222380D01*
X107933333Y-64270000D01*
X107980952Y-64317619D01*
X108028571Y-64412857D01*
X108028571Y-64508095D01*
X107980952Y-64650952D01*
X107409523Y-65222380D01*
X108028571Y-65222380D01*
X108361904Y-64222380D02*
X108980952Y-64222380D01*
X108647619Y-64603333D01*
X108790476Y-64603333D01*
X108885714Y-64650952D01*
X108933333Y-64698571D01*
X108980952Y-64793809D01*
X108980952Y-65031904D01*
X108933333Y-65127142D01*
X108885714Y-65174761D01*
X108790476Y-65222380D01*
X108504761Y-65222380D01*
X108409523Y-65174761D01*
X108361904Y-65127142D01*
D11*
%TO.C,U1*%
X126746000Y-66421000D02*
X126746000Y-65659000D01*
X126746000Y-65659000D02*
X110744000Y-65659000D01*
X110744000Y-65659000D02*
X110744000Y-66421000D01*
D12*
%TO.C,C1*%
X133450000Y-101600000D02*
G75*
G03*
X133450000Y-101600000I-2120000J0D01*
G01*
X131330000Y-100760000D02*
X131330000Y-99520000D01*
X131330000Y-103680000D02*
X131330000Y-102440000D01*
X131290000Y-100760000D02*
X131290000Y-99520000D01*
X131290000Y-103680000D02*
X131290000Y-102440000D01*
X131250000Y-100760000D02*
X131250000Y-99521000D01*
X131250000Y-103679000D02*
X131250000Y-102440000D01*
X131210000Y-103677000D02*
X131210000Y-102440000D01*
X131210000Y-100760000D02*
X131210000Y-99523000D01*
X131170000Y-103674000D02*
X131170000Y-102440000D01*
X131170000Y-100760000D02*
X131170000Y-99526000D01*
X131130000Y-103671000D02*
X131130000Y-102440000D01*
X131130000Y-100760000D02*
X131130000Y-99529000D01*
X131090000Y-103667000D02*
X131090000Y-102440000D01*
X131090000Y-100760000D02*
X131090000Y-99533000D01*
X131050000Y-103662000D02*
X131050000Y-102440000D01*
X131050000Y-100760000D02*
X131050000Y-99538000D01*
X131010000Y-103656000D02*
X131010000Y-102440000D01*
X131010000Y-100760000D02*
X131010000Y-99544000D01*
X130970000Y-103650000D02*
X130970000Y-102440000D01*
X130970000Y-100760000D02*
X130970000Y-99550000D01*
X130930000Y-103642000D02*
X130930000Y-102440000D01*
X130930000Y-100760000D02*
X130930000Y-99558000D01*
X130890000Y-103634000D02*
X130890000Y-102440000D01*
X130890000Y-100760000D02*
X130890000Y-99566000D01*
X130850000Y-103625000D02*
X130850000Y-102440000D01*
X130850000Y-100760000D02*
X130850000Y-99575000D01*
X130810000Y-103616000D02*
X130810000Y-102440000D01*
X130810000Y-100760000D02*
X130810000Y-99584000D01*
X130770000Y-103605000D02*
X130770000Y-102440000D01*
X130770000Y-100760000D02*
X130770000Y-99595000D01*
X130730000Y-103594000D02*
X130730000Y-102440000D01*
X130730000Y-100760000D02*
X130730000Y-99606000D01*
X130690000Y-103582000D02*
X130690000Y-102440000D01*
X130690000Y-100760000D02*
X130690000Y-99618000D01*
X130650000Y-103568000D02*
X130650000Y-102440000D01*
X130650000Y-100760000D02*
X130650000Y-99632000D01*
X130609000Y-103554000D02*
X130609000Y-102440000D01*
X130609000Y-100760000D02*
X130609000Y-99646000D01*
X130569000Y-103540000D02*
X130569000Y-102440000D01*
X130569000Y-100760000D02*
X130569000Y-99660000D01*
X130529000Y-103524000D02*
X130529000Y-102440000D01*
X130529000Y-100760000D02*
X130529000Y-99676000D01*
X130489000Y-103507000D02*
X130489000Y-102440000D01*
X130489000Y-100760000D02*
X130489000Y-99693000D01*
X130449000Y-103489000D02*
X130449000Y-102440000D01*
X130449000Y-100760000D02*
X130449000Y-99711000D01*
X130409000Y-103470000D02*
X130409000Y-102440000D01*
X130409000Y-100760000D02*
X130409000Y-99730000D01*
X130369000Y-103451000D02*
X130369000Y-102440000D01*
X130369000Y-100760000D02*
X130369000Y-99749000D01*
X130329000Y-103430000D02*
X130329000Y-102440000D01*
X130329000Y-100760000D02*
X130329000Y-99770000D01*
X130289000Y-103408000D02*
X130289000Y-102440000D01*
X130289000Y-100760000D02*
X130289000Y-99792000D01*
X130249000Y-103385000D02*
X130249000Y-102440000D01*
X130249000Y-100760000D02*
X130249000Y-99815000D01*
X130209000Y-103360000D02*
X130209000Y-102440000D01*
X130209000Y-100760000D02*
X130209000Y-99840000D01*
X130169000Y-103335000D02*
X130169000Y-102440000D01*
X130169000Y-100760000D02*
X130169000Y-99865000D01*
X130129000Y-103308000D02*
X130129000Y-102440000D01*
X130129000Y-100760000D02*
X130129000Y-99892000D01*
X130089000Y-103280000D02*
X130089000Y-102440000D01*
X130089000Y-100760000D02*
X130089000Y-99920000D01*
X130049000Y-103250000D02*
X130049000Y-102440000D01*
X130049000Y-100760000D02*
X130049000Y-99950000D01*
X130009000Y-103219000D02*
X130009000Y-102440000D01*
X130009000Y-100760000D02*
X130009000Y-99981000D01*
X129969000Y-103187000D02*
X129969000Y-102440000D01*
X129969000Y-100760000D02*
X129969000Y-100013000D01*
X129929000Y-103152000D02*
X129929000Y-102440000D01*
X129929000Y-100760000D02*
X129929000Y-100048000D01*
X129889000Y-103116000D02*
X129889000Y-102440000D01*
X129889000Y-100760000D02*
X129889000Y-100084000D01*
X129849000Y-103078000D02*
X129849000Y-102440000D01*
X129849000Y-100760000D02*
X129849000Y-100122000D01*
X129809000Y-103038000D02*
X129809000Y-102440000D01*
X129809000Y-100760000D02*
X129809000Y-100162000D01*
X129769000Y-102996000D02*
X129769000Y-102440000D01*
X129769000Y-100760000D02*
X129769000Y-100204000D01*
X129729000Y-102951000D02*
X129729000Y-100249000D01*
X129689000Y-102904000D02*
X129689000Y-100296000D01*
X129649000Y-102854000D02*
X129649000Y-100346000D01*
X129609000Y-102800000D02*
X129609000Y-100400000D01*
X129569000Y-102742000D02*
X129569000Y-100458000D01*
X129529000Y-102680000D02*
X129529000Y-100520000D01*
X129489000Y-102613000D02*
X129489000Y-100587000D01*
X129449000Y-102540000D02*
X129449000Y-100660000D01*
X129409000Y-102459000D02*
X129409000Y-100741000D01*
X129369000Y-102368000D02*
X129369000Y-100832000D01*
X129329000Y-102264000D02*
X129329000Y-100936000D01*
X129289000Y-102137000D02*
X129289000Y-101063000D01*
X129249000Y-101970000D02*
X129249000Y-101230000D01*
X133599801Y-102795000D02*
X133199801Y-102795000D01*
X133399801Y-102995000D02*
X133399801Y-102595000D01*
%TO.C,R1*%
X102220000Y-82900000D02*
X106060000Y-82900000D01*
X102220000Y-84740000D02*
X106060000Y-84740000D01*
%TO.C,R2*%
X102220000Y-79660000D02*
X106060000Y-79660000D01*
X102220000Y-77820000D02*
X106060000Y-77820000D01*
%TO.C,R3*%
X102220000Y-71470000D02*
X106060000Y-71470000D01*
X102220000Y-73310000D02*
X106060000Y-73310000D01*
%TO.C,R4*%
X102220000Y-68230000D02*
X106060000Y-68230000D01*
X102220000Y-66390000D02*
X106060000Y-66390000D01*
%TO.C,R5*%
X133000000Y-95900000D02*
X133000000Y-92060000D01*
X131160000Y-95900000D02*
X131160000Y-92060000D01*
%TO.C,R6*%
X133000000Y-66660000D02*
X133000000Y-70500000D01*
X131160000Y-66660000D02*
X131160000Y-70500000D01*
%TO.C,R7*%
X102220000Y-87980000D02*
X106060000Y-87980000D01*
X102220000Y-89820000D02*
X106060000Y-89820000D01*
%TO.C,R8*%
X102220000Y-94900000D02*
X106060000Y-94900000D01*
X102220000Y-93060000D02*
X106060000Y-93060000D01*
%TO.C,R9*%
X131160000Y-87010000D02*
X131160000Y-83170000D01*
X133000000Y-87010000D02*
X133000000Y-83170000D01*
%TO.C,R10*%
X133000000Y-79120000D02*
X133000000Y-75280000D01*
X131160000Y-79120000D02*
X131160000Y-75280000D01*
%TO.C,J5*%
X96080000Y-89519677D02*
X96080000Y-89595000D01*
X96080000Y-89595000D02*
X94960000Y-89595000D01*
X94960000Y-89595000D02*
X94960000Y-88205000D01*
X94960000Y-88205000D02*
X96080000Y-88205000D01*
X96080000Y-88205000D02*
X96080000Y-88280323D01*
X94960000Y-89160000D02*
X90960000Y-89160000D01*
X90960000Y-89160000D02*
X90960000Y-88640000D01*
X90960000Y-88640000D02*
X94960000Y-88640000D01*
X94960000Y-89100000D02*
X90960000Y-89100000D01*
X94960000Y-88980000D02*
X90960000Y-88980000D01*
X94960000Y-88860000D02*
X90960000Y-88860000D01*
X94960000Y-88740000D02*
X90960000Y-88740000D01*
X98550000Y-88900000D02*
X98550000Y-89660000D01*
X98550000Y-89660000D02*
X97790000Y-89660000D01*
%TO.C,U2*%
X103090000Y-103260000D02*
X101780000Y-103260000D01*
X101780000Y-103260000D02*
X101780000Y-100540000D01*
X106270000Y-99400000D02*
X106270000Y-100540000D01*
X106500000Y-103260000D02*
X105190000Y-103260000D01*
X106500000Y-100540000D02*
X106500000Y-103260000D01*
X106500000Y-100540000D02*
X106270000Y-100540000D01*
X101780000Y-100540000D02*
X102010000Y-100540000D01*
%TO.C,BZ1*%
X98550000Y-99820000D02*
X97790000Y-99820000D01*
X98550000Y-99060000D02*
X98550000Y-99820000D01*
X94960000Y-98900000D02*
X90960000Y-98900000D01*
X94960000Y-99020000D02*
X90960000Y-99020000D01*
X94960000Y-99140000D02*
X90960000Y-99140000D01*
X94960000Y-99260000D02*
X90960000Y-99260000D01*
X90960000Y-98800000D02*
X94960000Y-98800000D01*
X90960000Y-99320000D02*
X90960000Y-98800000D01*
X94960000Y-99320000D02*
X90960000Y-99320000D01*
X96080000Y-98365000D02*
X96080000Y-98440323D01*
X94960000Y-98365000D02*
X96080000Y-98365000D01*
X94960000Y-99755000D02*
X94960000Y-98365000D01*
X96080000Y-99755000D02*
X94960000Y-99755000D01*
X96080000Y-99679677D02*
X96080000Y-99755000D01*
%TO.C,D1*%
X96080000Y-94599677D02*
X96080000Y-94675000D01*
X96080000Y-94675000D02*
X94960000Y-94675000D01*
X94960000Y-94675000D02*
X94960000Y-93285000D01*
X94960000Y-93285000D02*
X96080000Y-93285000D01*
X96080000Y-93285000D02*
X96080000Y-93360323D01*
X94960000Y-94240000D02*
X90960000Y-94240000D01*
X90960000Y-94240000D02*
X90960000Y-93720000D01*
X90960000Y-93720000D02*
X94960000Y-93720000D01*
X94960000Y-94180000D02*
X90960000Y-94180000D01*
X94960000Y-94060000D02*
X90960000Y-94060000D01*
X94960000Y-93940000D02*
X90960000Y-93940000D01*
X94960000Y-93820000D02*
X90960000Y-93820000D01*
X98550000Y-93980000D02*
X98550000Y-94740000D01*
X98550000Y-94740000D02*
X97790000Y-94740000D01*
%TO.C,J1*%
X96080000Y-84439677D02*
X96080000Y-84515000D01*
X96080000Y-84515000D02*
X94960000Y-84515000D01*
X94960000Y-84515000D02*
X94960000Y-83125000D01*
X94960000Y-83125000D02*
X96080000Y-83125000D01*
X96080000Y-83125000D02*
X96080000Y-83200323D01*
X94960000Y-84080000D02*
X90960000Y-84080000D01*
X90960000Y-84080000D02*
X90960000Y-83560000D01*
X90960000Y-83560000D02*
X94960000Y-83560000D01*
X94960000Y-84020000D02*
X90960000Y-84020000D01*
X94960000Y-83900000D02*
X90960000Y-83900000D01*
X94960000Y-83780000D02*
X90960000Y-83780000D01*
X94960000Y-83660000D02*
X90960000Y-83660000D01*
X98550000Y-83820000D02*
X98550000Y-84580000D01*
X98550000Y-84580000D02*
X97790000Y-84580000D01*
%TO.C,J2*%
X98205001Y-79095001D02*
X97445001Y-79095001D01*
X98205001Y-78335001D02*
X98205001Y-79095001D01*
X94615001Y-78175001D02*
X90615001Y-78175001D01*
X94615001Y-78295001D02*
X90615001Y-78295001D01*
X94615001Y-78415001D02*
X90615001Y-78415001D01*
X94615001Y-78535001D02*
X90615001Y-78535001D01*
X90615001Y-78075001D02*
X94615001Y-78075001D01*
X90615001Y-78595001D02*
X90615001Y-78075001D01*
X94615001Y-78595001D02*
X90615001Y-78595001D01*
X95735001Y-77640001D02*
X95735001Y-77715324D01*
X94615001Y-77640001D02*
X95735001Y-77640001D01*
X94615001Y-79030001D02*
X94615001Y-77640001D01*
X95735001Y-79030001D02*
X94615001Y-79030001D01*
X95735001Y-78954678D02*
X95735001Y-79030001D01*
%TO.C,J3*%
X96080000Y-73009677D02*
X96080000Y-73085000D01*
X96080000Y-73085000D02*
X94960000Y-73085000D01*
X94960000Y-73085000D02*
X94960000Y-71695000D01*
X94960000Y-71695000D02*
X96080000Y-71695000D01*
X96080000Y-71695000D02*
X96080000Y-71770323D01*
X94960000Y-72650000D02*
X90960000Y-72650000D01*
X90960000Y-72650000D02*
X90960000Y-72130000D01*
X90960000Y-72130000D02*
X94960000Y-72130000D01*
X94960000Y-72590000D02*
X90960000Y-72590000D01*
X94960000Y-72470000D02*
X90960000Y-72470000D01*
X94960000Y-72350000D02*
X90960000Y-72350000D01*
X94960000Y-72230000D02*
X90960000Y-72230000D01*
X98550000Y-72390000D02*
X98550000Y-73150000D01*
X98550000Y-73150000D02*
X97790000Y-73150000D01*
%TO.C,J4*%
X98550000Y-68070000D02*
X97790000Y-68070000D01*
X98550000Y-67310000D02*
X98550000Y-68070000D01*
X94960000Y-67150000D02*
X90960000Y-67150000D01*
X94960000Y-67270000D02*
X90960000Y-67270000D01*
X94960000Y-67390000D02*
X90960000Y-67390000D01*
X94960000Y-67510000D02*
X90960000Y-67510000D01*
X90960000Y-67050000D02*
X94960000Y-67050000D01*
X90960000Y-67570000D02*
X90960000Y-67050000D01*
X94960000Y-67570000D02*
X90960000Y-67570000D01*
X96080000Y-66615000D02*
X96080000Y-66690323D01*
X94960000Y-66615000D02*
X96080000Y-66615000D01*
X94960000Y-68005000D02*
X94960000Y-66615000D01*
X96080000Y-68005000D02*
X94960000Y-68005000D01*
X96080000Y-67929677D02*
X96080000Y-68005000D01*
%TO.C,J6*%
X96080000Y-104759677D02*
X96080000Y-104835000D01*
X96080000Y-104835000D02*
X94960000Y-104835000D01*
X94960000Y-104835000D02*
X94960000Y-103445000D01*
X94960000Y-103445000D02*
X96080000Y-103445000D01*
X96080000Y-103445000D02*
X96080000Y-103520323D01*
X94960000Y-104400000D02*
X90960000Y-104400000D01*
X90960000Y-104400000D02*
X90960000Y-103880000D01*
X90960000Y-103880000D02*
X94960000Y-103880000D01*
X94960000Y-104340000D02*
X90960000Y-104340000D01*
X94960000Y-104220000D02*
X90960000Y-104220000D01*
X94960000Y-104100000D02*
X90960000Y-104100000D01*
X94960000Y-103980000D02*
X90960000Y-103980000D01*
X98550000Y-104140000D02*
X98550000Y-104900000D01*
X98550000Y-104900000D02*
X97790000Y-104900000D01*
%TO.C,SW5*%
X111860000Y-92870000D02*
X124160000Y-92870000D01*
X124160000Y-97450000D02*
X124160000Y-100590000D01*
X124160000Y-105170000D02*
X111860000Y-105170000D01*
X111860000Y-95590000D02*
X111860000Y-92870000D01*
X122689050Y-99060000D02*
G75*
G03*
X122689050Y-99060000I-4579050J0D01*
G01*
X111860000Y-105170000D02*
X111860000Y-102450000D01*
X111860000Y-100590000D02*
X111860000Y-97450000D01*
X124160000Y-102450000D02*
X124160000Y-105170000D01*
X124160000Y-92870000D02*
X124160000Y-95590000D01*
%TO.C,U1*%
D10*
X116292380Y-75691904D02*
X117101904Y-75691904D01*
X117197142Y-75644285D01*
X117244761Y-75596666D01*
X117292380Y-75501428D01*
X117292380Y-75310952D01*
X117244761Y-75215714D01*
X117197142Y-75168095D01*
X117101904Y-75120476D01*
X116292380Y-75120476D01*
X117292380Y-74120476D02*
X117292380Y-74691904D01*
X117292380Y-74406190D02*
X116292380Y-74406190D01*
X116435238Y-74501428D01*
X116530476Y-74596666D01*
X116578095Y-74691904D01*
%TO.C,C1*%
X131163333Y-105207142D02*
X131115714Y-105254761D01*
X130972857Y-105302380D01*
X130877619Y-105302380D01*
X130734761Y-105254761D01*
X130639523Y-105159523D01*
X130591904Y-105064285D01*
X130544285Y-104873809D01*
X130544285Y-104730952D01*
X130591904Y-104540476D01*
X130639523Y-104445238D01*
X130734761Y-104350000D01*
X130877619Y-104302380D01*
X130972857Y-104302380D01*
X131115714Y-104350000D01*
X131163333Y-104397619D01*
X132115714Y-105302380D02*
X131544285Y-105302380D01*
X131830000Y-105302380D02*
X131830000Y-104302380D01*
X131734761Y-104445238D01*
X131639523Y-104540476D01*
X131544285Y-104588095D01*
%TO.C,R1*%
X103973333Y-82352380D02*
X103640000Y-81876190D01*
X103401904Y-82352380D02*
X103401904Y-81352380D01*
X103782857Y-81352380D01*
X103878095Y-81400000D01*
X103925714Y-81447619D01*
X103973333Y-81542857D01*
X103973333Y-81685714D01*
X103925714Y-81780952D01*
X103878095Y-81828571D01*
X103782857Y-81876190D01*
X103401904Y-81876190D01*
X104925714Y-82352380D02*
X104354285Y-82352380D01*
X104640000Y-82352380D02*
X104640000Y-81352380D01*
X104544761Y-81495238D01*
X104449523Y-81590476D01*
X104354285Y-81638095D01*
%TO.C,R2*%
X103973333Y-77272380D02*
X103640000Y-76796190D01*
X103401904Y-77272380D02*
X103401904Y-76272380D01*
X103782857Y-76272380D01*
X103878095Y-76320000D01*
X103925714Y-76367619D01*
X103973333Y-76462857D01*
X103973333Y-76605714D01*
X103925714Y-76700952D01*
X103878095Y-76748571D01*
X103782857Y-76796190D01*
X103401904Y-76796190D01*
X104354285Y-76367619D02*
X104401904Y-76320000D01*
X104497142Y-76272380D01*
X104735238Y-76272380D01*
X104830476Y-76320000D01*
X104878095Y-76367619D01*
X104925714Y-76462857D01*
X104925714Y-76558095D01*
X104878095Y-76700952D01*
X104306666Y-77272380D01*
X104925714Y-77272380D01*
%TO.C,R3*%
X103973333Y-70922380D02*
X103640000Y-70446190D01*
X103401904Y-70922380D02*
X103401904Y-69922380D01*
X103782857Y-69922380D01*
X103878095Y-69970000D01*
X103925714Y-70017619D01*
X103973333Y-70112857D01*
X103973333Y-70255714D01*
X103925714Y-70350952D01*
X103878095Y-70398571D01*
X103782857Y-70446190D01*
X103401904Y-70446190D01*
X104306666Y-69922380D02*
X104925714Y-69922380D01*
X104592380Y-70303333D01*
X104735238Y-70303333D01*
X104830476Y-70350952D01*
X104878095Y-70398571D01*
X104925714Y-70493809D01*
X104925714Y-70731904D01*
X104878095Y-70827142D01*
X104830476Y-70874761D01*
X104735238Y-70922380D01*
X104449523Y-70922380D01*
X104354285Y-70874761D01*
X104306666Y-70827142D01*
%TO.C,R4*%
X103973333Y-65842380D02*
X103640000Y-65366190D01*
X103401904Y-65842380D02*
X103401904Y-64842380D01*
X103782857Y-64842380D01*
X103878095Y-64890000D01*
X103925714Y-64937619D01*
X103973333Y-65032857D01*
X103973333Y-65175714D01*
X103925714Y-65270952D01*
X103878095Y-65318571D01*
X103782857Y-65366190D01*
X103401904Y-65366190D01*
X104830476Y-65175714D02*
X104830476Y-65842380D01*
X104592380Y-64794761D02*
X104354285Y-65509047D01*
X104973333Y-65509047D01*
%TO.C,R5*%
X130612380Y-94146666D02*
X130136190Y-94480000D01*
X130612380Y-94718095D02*
X129612380Y-94718095D01*
X129612380Y-94337142D01*
X129660000Y-94241904D01*
X129707619Y-94194285D01*
X129802857Y-94146666D01*
X129945714Y-94146666D01*
X130040952Y-94194285D01*
X130088571Y-94241904D01*
X130136190Y-94337142D01*
X130136190Y-94718095D01*
X129612380Y-93241904D02*
X129612380Y-93718095D01*
X130088571Y-93765714D01*
X130040952Y-93718095D01*
X129993333Y-93622857D01*
X129993333Y-93384761D01*
X130040952Y-93289523D01*
X130088571Y-93241904D01*
X130183809Y-93194285D01*
X130421904Y-93194285D01*
X130517142Y-93241904D01*
X130564761Y-93289523D01*
X130612380Y-93384761D01*
X130612380Y-93622857D01*
X130564761Y-93718095D01*
X130517142Y-93765714D01*
%TO.C,R6*%
X129992380Y-64936666D02*
X129516190Y-65270000D01*
X129992380Y-65508095D02*
X128992380Y-65508095D01*
X128992380Y-65127142D01*
X129040000Y-65031904D01*
X129087619Y-64984285D01*
X129182857Y-64936666D01*
X129325714Y-64936666D01*
X129420952Y-64984285D01*
X129468571Y-65031904D01*
X129516190Y-65127142D01*
X129516190Y-65508095D01*
X128992380Y-64079523D02*
X128992380Y-64270000D01*
X129040000Y-64365238D01*
X129087619Y-64412857D01*
X129230476Y-64508095D01*
X129420952Y-64555714D01*
X129801904Y-64555714D01*
X129897142Y-64508095D01*
X129944761Y-64460476D01*
X129992380Y-64365238D01*
X129992380Y-64174761D01*
X129944761Y-64079523D01*
X129897142Y-64031904D01*
X129801904Y-63984285D01*
X129563809Y-63984285D01*
X129468571Y-64031904D01*
X129420952Y-64079523D01*
X129373333Y-64174761D01*
X129373333Y-64365238D01*
X129420952Y-64460476D01*
X129468571Y-64508095D01*
X129563809Y-64555714D01*
%TO.C,R7*%
X103973333Y-87432380D02*
X103640000Y-86956190D01*
X103401904Y-87432380D02*
X103401904Y-86432380D01*
X103782857Y-86432380D01*
X103878095Y-86480000D01*
X103925714Y-86527619D01*
X103973333Y-86622857D01*
X103973333Y-86765714D01*
X103925714Y-86860952D01*
X103878095Y-86908571D01*
X103782857Y-86956190D01*
X103401904Y-86956190D01*
X104306666Y-86432380D02*
X104973333Y-86432380D01*
X104544761Y-87432380D01*
%TO.C,R8*%
X103973333Y-92512380D02*
X103640000Y-92036190D01*
X103401904Y-92512380D02*
X103401904Y-91512380D01*
X103782857Y-91512380D01*
X103878095Y-91560000D01*
X103925714Y-91607619D01*
X103973333Y-91702857D01*
X103973333Y-91845714D01*
X103925714Y-91940952D01*
X103878095Y-91988571D01*
X103782857Y-92036190D01*
X103401904Y-92036190D01*
X104544761Y-91940952D02*
X104449523Y-91893333D01*
X104401904Y-91845714D01*
X104354285Y-91750476D01*
X104354285Y-91702857D01*
X104401904Y-91607619D01*
X104449523Y-91560000D01*
X104544761Y-91512380D01*
X104735238Y-91512380D01*
X104830476Y-91560000D01*
X104878095Y-91607619D01*
X104925714Y-91702857D01*
X104925714Y-91750476D01*
X104878095Y-91845714D01*
X104830476Y-91893333D01*
X104735238Y-91940952D01*
X104544761Y-91940952D01*
X104449523Y-91988571D01*
X104401904Y-92036190D01*
X104354285Y-92131428D01*
X104354285Y-92321904D01*
X104401904Y-92417142D01*
X104449523Y-92464761D01*
X104544761Y-92512380D01*
X104735238Y-92512380D01*
X104830476Y-92464761D01*
X104878095Y-92417142D01*
X104925714Y-92321904D01*
X104925714Y-92131428D01*
X104878095Y-92036190D01*
X104830476Y-91988571D01*
X104735238Y-91940952D01*
%TO.C,R9*%
X130612380Y-85256666D02*
X130136190Y-85590000D01*
X130612380Y-85828095D02*
X129612380Y-85828095D01*
X129612380Y-85447142D01*
X129660000Y-85351904D01*
X129707619Y-85304285D01*
X129802857Y-85256666D01*
X129945714Y-85256666D01*
X130040952Y-85304285D01*
X130088571Y-85351904D01*
X130136190Y-85447142D01*
X130136190Y-85828095D01*
X130612380Y-84780476D02*
X130612380Y-84590000D01*
X130564761Y-84494761D01*
X130517142Y-84447142D01*
X130374285Y-84351904D01*
X130183809Y-84304285D01*
X129802857Y-84304285D01*
X129707619Y-84351904D01*
X129660000Y-84399523D01*
X129612380Y-84494761D01*
X129612380Y-84685238D01*
X129660000Y-84780476D01*
X129707619Y-84828095D01*
X129802857Y-84875714D01*
X130040952Y-84875714D01*
X130136190Y-84828095D01*
X130183809Y-84780476D01*
X130231428Y-84685238D01*
X130231428Y-84494761D01*
X130183809Y-84399523D01*
X130136190Y-84351904D01*
X130040952Y-84304285D01*
%TO.C,R10*%
X130612380Y-77842857D02*
X130136190Y-78176190D01*
X130612380Y-78414285D02*
X129612380Y-78414285D01*
X129612380Y-78033333D01*
X129660000Y-77938095D01*
X129707619Y-77890476D01*
X129802857Y-77842857D01*
X129945714Y-77842857D01*
X130040952Y-77890476D01*
X130088571Y-77938095D01*
X130136190Y-78033333D01*
X130136190Y-78414285D01*
X130612380Y-76890476D02*
X130612380Y-77461904D01*
X130612380Y-77176190D02*
X129612380Y-77176190D01*
X129755238Y-77271428D01*
X129850476Y-77366666D01*
X129898095Y-77461904D01*
X129612380Y-76271428D02*
X129612380Y-76176190D01*
X129660000Y-76080952D01*
X129707619Y-76033333D01*
X129802857Y-75985714D01*
X129993333Y-75938095D01*
X130231428Y-75938095D01*
X130421904Y-75985714D01*
X130517142Y-76033333D01*
X130564761Y-76080952D01*
X130612380Y-76176190D01*
X130612380Y-76271428D01*
X130564761Y-76366666D01*
X130517142Y-76414285D01*
X130421904Y-76461904D01*
X130231428Y-76509523D01*
X129993333Y-76509523D01*
X129802857Y-76461904D01*
X129707619Y-76414285D01*
X129660000Y-76366666D01*
X129612380Y-76271428D01*
%TO.C,J5*%
X94389166Y-89987380D02*
X94389166Y-90701666D01*
X94341547Y-90844523D01*
X94246309Y-90939761D01*
X94103452Y-90987380D01*
X94008214Y-90987380D01*
X95341547Y-89987380D02*
X94865357Y-89987380D01*
X94817738Y-90463571D01*
X94865357Y-90415952D01*
X94960595Y-90368333D01*
X95198690Y-90368333D01*
X95293928Y-90415952D01*
X95341547Y-90463571D01*
X95389166Y-90558809D01*
X95389166Y-90796904D01*
X95341547Y-90892142D01*
X95293928Y-90939761D01*
X95198690Y-90987380D01*
X94960595Y-90987380D01*
X94865357Y-90939761D01*
X94817738Y-90892142D01*
%TO.C,U2*%
X107092380Y-102661904D02*
X107901904Y-102661904D01*
X107997142Y-102614285D01*
X108044761Y-102566666D01*
X108092380Y-102471428D01*
X108092380Y-102280952D01*
X108044761Y-102185714D01*
X107997142Y-102138095D01*
X107901904Y-102090476D01*
X107092380Y-102090476D01*
X107187619Y-101661904D02*
X107140000Y-101614285D01*
X107092380Y-101519047D01*
X107092380Y-101280952D01*
X107140000Y-101185714D01*
X107187619Y-101138095D01*
X107282857Y-101090476D01*
X107378095Y-101090476D01*
X107520952Y-101138095D01*
X108092380Y-101709523D01*
X108092380Y-101090476D01*
%TO.C,BZ1*%
X94369047Y-100623571D02*
X94511904Y-100671190D01*
X94559523Y-100718809D01*
X94607142Y-100814047D01*
X94607142Y-100956904D01*
X94559523Y-101052142D01*
X94511904Y-101099761D01*
X94416666Y-101147380D01*
X94035714Y-101147380D01*
X94035714Y-100147380D01*
X94369047Y-100147380D01*
X94464285Y-100195000D01*
X94511904Y-100242619D01*
X94559523Y-100337857D01*
X94559523Y-100433095D01*
X94511904Y-100528333D01*
X94464285Y-100575952D01*
X94369047Y-100623571D01*
X94035714Y-100623571D01*
X94940476Y-100147380D02*
X95607142Y-100147380D01*
X94940476Y-101147380D01*
X95607142Y-101147380D01*
X96511904Y-101147380D02*
X95940476Y-101147380D01*
X96226190Y-101147380D02*
X96226190Y-100147380D01*
X96130952Y-100290238D01*
X96035714Y-100385476D01*
X95940476Y-100433095D01*
%TO.C,D1*%
X93984404Y-96067380D02*
X93984404Y-95067380D01*
X94222500Y-95067380D01*
X94365357Y-95115000D01*
X94460595Y-95210238D01*
X94508214Y-95305476D01*
X94555833Y-95495952D01*
X94555833Y-95638809D01*
X94508214Y-95829285D01*
X94460595Y-95924523D01*
X94365357Y-96019761D01*
X94222500Y-96067380D01*
X93984404Y-96067380D01*
X95508214Y-96067380D02*
X94936785Y-96067380D01*
X95222500Y-96067380D02*
X95222500Y-95067380D01*
X95127261Y-95210238D01*
X95032023Y-95305476D01*
X94936785Y-95353095D01*
%TO.C,J1*%
X94389166Y-84907380D02*
X94389166Y-85621666D01*
X94341547Y-85764523D01*
X94246309Y-85859761D01*
X94103452Y-85907380D01*
X94008214Y-85907380D01*
X95389166Y-85907380D02*
X94817738Y-85907380D01*
X95103452Y-85907380D02*
X95103452Y-84907380D01*
X95008214Y-85050238D01*
X94912976Y-85145476D01*
X94817738Y-85193095D01*
%TO.C,J2*%
X94044167Y-79422381D02*
X94044167Y-80136667D01*
X93996548Y-80279524D01*
X93901310Y-80374762D01*
X93758453Y-80422381D01*
X93663215Y-80422381D01*
X94472739Y-79517620D02*
X94520358Y-79470001D01*
X94615596Y-79422381D01*
X94853691Y-79422381D01*
X94948929Y-79470001D01*
X94996548Y-79517620D01*
X95044167Y-79612858D01*
X95044167Y-79708096D01*
X94996548Y-79850953D01*
X94425120Y-80422381D01*
X95044167Y-80422381D01*
%TO.C,J3*%
X94389166Y-73477380D02*
X94389166Y-74191666D01*
X94341547Y-74334523D01*
X94246309Y-74429761D01*
X94103452Y-74477380D01*
X94008214Y-74477380D01*
X94770119Y-73477380D02*
X95389166Y-73477380D01*
X95055833Y-73858333D01*
X95198690Y-73858333D01*
X95293928Y-73905952D01*
X95341547Y-73953571D01*
X95389166Y-74048809D01*
X95389166Y-74286904D01*
X95341547Y-74382142D01*
X95293928Y-74429761D01*
X95198690Y-74477380D01*
X94912976Y-74477380D01*
X94817738Y-74429761D01*
X94770119Y-74382142D01*
%TO.C,J4*%
X94389166Y-68397380D02*
X94389166Y-69111666D01*
X94341547Y-69254523D01*
X94246309Y-69349761D01*
X94103452Y-69397380D01*
X94008214Y-69397380D01*
X95293928Y-68730714D02*
X95293928Y-69397380D01*
X95055833Y-68349761D02*
X94817738Y-69064047D01*
X95436785Y-69064047D01*
%TO.C,J6*%
X97456666Y-101052380D02*
X97456666Y-101766666D01*
X97409047Y-101909523D01*
X97313809Y-102004761D01*
X97170952Y-102052380D01*
X97075714Y-102052380D01*
X98361428Y-101052380D02*
X98170952Y-101052380D01*
X98075714Y-101100000D01*
X98028095Y-101147619D01*
X97932857Y-101290476D01*
X97885238Y-101480952D01*
X97885238Y-101861904D01*
X97932857Y-101957142D01*
X97980476Y-102004761D01*
X98075714Y-102052380D01*
X98266190Y-102052380D01*
X98361428Y-102004761D01*
X98409047Y-101957142D01*
X98456666Y-101861904D01*
X98456666Y-101623809D01*
X98409047Y-101528571D01*
X98361428Y-101480952D01*
X98266190Y-101433333D01*
X98075714Y-101433333D01*
X97980476Y-101480952D01*
X97932857Y-101528571D01*
X97885238Y-101623809D01*
%TO.C,SW5*%
X116506666Y-92264761D02*
X116649523Y-92312380D01*
X116887619Y-92312380D01*
X116982857Y-92264761D01*
X117030476Y-92217142D01*
X117078095Y-92121904D01*
X117078095Y-92026666D01*
X117030476Y-91931428D01*
X116982857Y-91883809D01*
X116887619Y-91836190D01*
X116697142Y-91788571D01*
X116601904Y-91740952D01*
X116554285Y-91693333D01*
X116506666Y-91598095D01*
X116506666Y-91502857D01*
X116554285Y-91407619D01*
X116601904Y-91360000D01*
X116697142Y-91312380D01*
X116935238Y-91312380D01*
X117078095Y-91360000D01*
X117411428Y-91312380D02*
X117649523Y-92312380D01*
X117840000Y-91598095D01*
X118030476Y-92312380D01*
X118268571Y-91312380D01*
X119125714Y-91312380D02*
X118649523Y-91312380D01*
X118601904Y-91788571D01*
X118649523Y-91740952D01*
X118744761Y-91693333D01*
X118982857Y-91693333D01*
X119078095Y-91740952D01*
X119125714Y-91788571D01*
X119173333Y-91883809D01*
X119173333Y-92121904D01*
X119125714Y-92217142D01*
X119078095Y-92264761D01*
X118982857Y-92312380D01*
X118744761Y-92312380D01*
X118649523Y-92264761D01*
X118601904Y-92217142D01*
%TD*%
M02*
